<svg width="153" height="42" viewBox="0 0 153 42" fill="none" xmlns="http://www.w3.org/2000/svg">
<path d="M52.5657 34.1782C50.6737 34.1782 49.0406 33.8695 47.6664 33.2521C46.3121 32.6148 45.2565 31.6987 44.4997 30.5037C43.7628 29.2889 43.3545 27.8151 43.2749 26.0824C43.255 25.226 43.245 24.3198 43.245 23.3639C43.245 22.388 43.255 21.4619 43.2749 20.5856C43.3545 18.8927 43.7728 17.4588 44.5296 16.2837C45.2864 15.1087 46.3519 14.2125 47.7261 13.5951C49.1003 12.9777 50.7135 12.669 52.5657 12.669C54.0594 12.669 55.3838 12.8582 56.5389 13.2366C57.694 13.5951 58.66 14.083 59.4367 14.7004C60.2333 15.3178 60.8308 15.995 61.2291 16.7318C61.6474 17.4687 61.8664 18.1957 61.8864 18.9126C61.9063 19.0919 61.8465 19.2413 61.7071 19.3608C61.5876 19.4803 61.4382 19.54 61.259 19.54H56.8974C56.6783 19.54 56.509 19.5101 56.3895 19.4504C56.29 19.3707 56.2003 19.2612 56.1207 19.1218C55.9813 18.823 55.7722 18.5143 55.4933 18.1957C55.2344 17.8571 54.866 17.5683 54.388 17.3293C53.9299 17.0903 53.3225 16.9708 52.5657 16.9708C51.4305 16.9708 50.5343 17.2696 49.877 17.8671C49.2397 18.4645 48.8912 19.4205 48.8314 20.735C48.7717 22.4477 48.7717 24.1804 48.8314 25.933C48.8912 27.3271 49.2596 28.3329 49.9368 28.9503C50.6139 29.5677 51.5101 29.8764 52.6254 29.8764C53.3822 29.8764 54.0494 29.7469 54.627 29.488C55.2245 29.2291 55.6925 28.8308 56.0311 28.2931C56.3696 27.7354 56.5389 27.0284 56.5389 26.172V25.6044H53.7308C53.5117 25.6044 53.3225 25.5347 53.1632 25.3953C53.0237 25.236 52.954 25.0468 52.954 24.8277V22.617C52.954 22.3979 53.0237 22.2187 53.1632 22.0793C53.3225 21.92 53.5117 21.8403 53.7308 21.8403H61.259C61.4781 21.8403 61.6573 21.92 61.7967 22.0793C61.9361 22.2187 62.0059 22.3979 62.0059 22.617V26.0226C62.0059 27.7354 61.6175 29.1992 60.8408 30.4141C60.064 31.629 58.9587 32.565 57.5248 33.2223C56.1107 33.8596 54.4577 34.1782 52.5657 34.1782ZM64.9664 33.8795C64.8071 33.8795 64.6577 33.8198 64.5183 33.7003C64.3988 33.5608 64.3391 33.4115 64.3391 33.2521C64.3391 33.1526 64.349 33.0629 64.3689 32.9833L71.3893 13.8042C71.4491 13.5851 71.5686 13.3959 71.7478 13.2366C71.947 13.0573 72.2158 12.9677 72.5544 12.9677H76.9757C77.3143 12.9677 77.5732 13.0573 77.7525 13.2366C77.9516 13.3959 78.0811 13.5851 78.1408 13.8042L85.1313 32.9833C85.1712 33.0629 85.1911 33.1526 85.1911 33.2521C85.1911 33.4115 85.1214 33.5608 84.982 33.7003C84.8625 33.8198 84.7131 33.8795 84.5339 33.8795H80.8594C80.5606 33.8795 80.3316 33.8098 80.1723 33.6704C80.0328 33.5111 79.9432 33.3716 79.9034 33.2521L78.7383 30.205H70.762L69.6267 33.2521C69.5869 33.3716 69.4973 33.5111 69.3579 33.6704C69.2185 33.8098 68.9795 33.8795 68.6409 33.8795H64.9664ZM71.9868 25.9032H77.5433L74.7352 18.0164L71.9868 25.9032ZM89.4876 33.8795C89.2884 33.8795 89.1092 33.8098 88.9498 33.6704C88.8104 33.531 88.7407 33.3517 88.7407 33.1327V13.7146C88.7407 13.4955 88.8104 13.3163 88.9498 13.1768C89.1092 13.0374 89.2884 12.9677 89.4876 12.9677H92.714C93.0326 12.9677 93.2716 13.0573 93.4309 13.2366C93.6102 13.3959 93.7197 13.5254 93.7595 13.625L99.0174 23.0651L104.275 13.625C104.335 13.5254 104.435 13.3959 104.574 13.2366C104.733 13.0573 104.982 12.9677 105.321 12.9677H108.517C108.736 12.9677 108.916 13.0374 109.055 13.1768C109.214 13.3163 109.294 13.4955 109.294 13.7146V33.1327C109.294 33.3517 109.214 33.531 109.055 33.6704C108.916 33.8098 108.736 33.8795 108.517 33.8795H104.962C104.743 33.8795 104.554 33.8098 104.395 33.6704C104.255 33.531 104.186 33.3517 104.186 33.1327V21.9299L100.81 28.1736C100.73 28.3528 100.611 28.5121 100.451 28.6516C100.292 28.791 100.073 28.8607 99.7941 28.8607H98.2406C97.9618 28.8607 97.7427 28.791 97.5834 28.6516C97.4241 28.5121 97.2946 28.3528 97.195 28.1736L93.8193 21.9299V33.1327C93.8193 33.3517 93.7496 33.531 93.6102 33.6704C93.4708 33.8098 93.2915 33.8795 93.0724 33.8795H89.4876ZM115.393 33.8795C115.174 33.8795 114.994 33.8098 114.855 33.6704C114.716 33.531 114.646 33.3517 114.646 33.1327V13.7146C114.646 13.4955 114.716 13.3163 114.855 13.1768C114.994 13.0374 115.174 12.9677 115.393 12.9677H129.344C129.563 12.9677 129.742 13.0374 129.882 13.1768C130.021 13.3163 130.091 13.4955 130.091 13.7146V16.5227C130.091 16.7418 130.021 16.921 129.882 17.0605C129.742 17.1999 129.563 17.2696 129.344 17.2696H119.814V21.3026H128.687C128.906 21.3026 129.085 21.3822 129.224 21.5416C129.364 21.681 129.433 21.8602 129.433 22.0793V24.6783C129.433 24.8775 129.364 25.0567 129.224 25.2161C129.085 25.3555 128.906 25.4252 128.687 25.4252H119.814V29.5777H129.583C129.802 29.5777 129.981 29.6474 130.121 29.7868C130.26 29.9262 130.33 30.1054 130.33 30.3245V33.1327C130.33 33.3517 130.26 33.531 130.121 33.6704C129.981 33.8098 129.802 33.8795 129.583 33.8795H115.393ZM142.718 34.1782C140.726 34.1782 139.073 33.8994 137.759 33.3418C136.444 32.7642 135.448 32.0174 134.771 31.1012C134.094 30.1851 133.735 29.2092 133.696 28.1736C133.696 28.0142 133.755 27.8748 133.875 27.7553C134.014 27.6159 134.174 27.5462 134.353 27.5462H138.117C138.396 27.5462 138.605 27.596 138.744 27.6956C138.904 27.7952 139.043 27.9246 139.163 28.084C139.322 28.3827 139.541 28.6715 139.82 28.9503C140.119 29.2291 140.497 29.4582 140.955 29.6374C141.433 29.7967 142.021 29.8764 142.718 29.8764C143.873 29.8764 144.739 29.6971 145.317 29.3387C145.914 28.9802 146.213 28.4922 146.213 27.8748C146.213 27.4367 146.054 27.0782 145.735 26.7994C145.416 26.5006 144.898 26.2417 144.181 26.0226C143.484 25.7837 142.548 25.5447 141.373 25.3057C139.86 24.987 138.565 24.5787 137.49 24.0808C136.434 23.563 135.628 22.8958 135.07 22.0793C134.512 21.2428 134.233 20.2072 134.233 18.9724C134.233 17.7575 134.572 16.6721 135.249 15.7161C135.946 14.7602 136.912 14.0133 138.147 13.4756C139.382 12.9379 140.845 12.669 142.538 12.669C143.913 12.669 145.117 12.8482 146.153 13.2067C147.209 13.5652 148.095 14.0432 148.812 14.6407C149.529 15.2381 150.067 15.8755 150.425 16.5526C150.803 17.2098 151.003 17.8571 151.023 18.4944C151.023 18.6537 150.963 18.8031 150.843 18.9425C150.724 19.062 150.574 19.1218 150.395 19.1218H146.452C146.233 19.1218 146.044 19.0819 145.884 19.0023C145.725 18.9226 145.585 18.7931 145.466 18.6139C145.347 18.1758 145.028 17.7974 144.51 17.4787C144.012 17.1401 143.355 16.9708 142.538 16.9708C141.662 16.9708 140.975 17.1302 140.477 17.4488C139.999 17.7476 139.76 18.2156 139.76 18.8529C139.76 19.2512 139.89 19.5997 140.148 19.8985C140.427 20.1972 140.875 20.4561 141.493 20.6752C142.13 20.8943 142.996 21.1233 144.092 21.3623C145.904 21.7009 147.368 22.1291 148.483 22.6469C149.599 23.1448 150.415 23.802 150.933 24.6186C151.451 25.4152 151.71 26.421 151.71 27.6358C151.71 28.9901 151.321 30.1652 150.545 31.161C149.788 32.1369 148.732 32.8837 147.378 33.4015C146.024 33.9193 144.47 34.1782 142.718 34.1782Z" fill="#F36A08"/>
<path d="M6.25712 12.6012C7.08207 12.6012 7.75082 13.2699 7.75082 14.0949V33.1395C7.75082 33.9645 7.08207 34.6332 6.25712 34.6332H2.13341C1.30846 34.6332 0.639709 33.9645 0.639709 33.1395V14.0949C0.639709 13.2699 1.30846 12.6012 2.13341 12.6012H6.25712Z" fill="#1173CD"/>
<path d="M11.2353 34.6331H7.00397H4.47445C4.05948 34.6331 3.72408 34.2949 3.72763 33.8799L3.76227 29.8269C3.76577 29.417 4.09911 29.0865 4.50909 29.0865H7.75082H11.2353C13.1 29.0865 14.6723 28.6677 15.9523 27.8302C16.9477 27.1666 17.7539 26.568 18.59 25.6322C18.9511 25.2281 19.616 25.2739 19.878 25.7482L21.8534 29.3245C22.0121 29.6117 21.9645 29.9688 21.739 30.2071C20.5096 31.5065 19.3988 32.7548 17.6353 33.4717C15.7074 34.246 13.574 34.6331 11.2353 34.6331Z" fill="#1173CD"/>
<path d="M29.6384 27.5848L37.4509 1.34558C37.6395 0.712278 38.2217 0.278122 38.8825 0.278122H43.584C44.6119 0.278122 45.3327 1.29226 44.9946 2.26302L34.0171 33.7882C33.8081 34.3885 33.2421 34.7907 32.6065 34.7907H30.2126C29.2909 34.7907 28.5892 33.9641 28.7387 33.0546L29.6384 27.5848ZM5.07709 2.20167C5.44714 1.71682 6.0735 1.51014 6.64621 1.71994C8.01506 2.22136 10.7995 3.3826 14.6518 5.69351C19.1618 8.3989 22.4444 11.6194 24.5476 14.4974C27.9222 19.1153 30.0408 26.7902 30.2394 27.5274C30.2507 27.5693 30.2583 27.6062 30.2657 27.649L31.1887 33.0452C31.3448 33.9575 30.642 34.7907 29.7164 34.7907H27.4031C26.7123 34.7907 26.1108 34.3225 25.9244 33.6573C25.1475 30.884 22.856 23.603 18.9462 18.3899C14.2173 12.0848 6.9009 9.75307 2.9783 8.92467C1.82036 8.68013 1.22192 7.25275 1.93995 6.31197L5.07709 2.20167Z" fill="#1173CD"/>
</svg>
